<svg width="200" height="36" viewBox="0 0 200 36" fill="none" xmlns="http://www.w3.org/2000/svg">
<mask id="mask0_2_5" style="mask-type:luminance" maskUnits="userSpaceOnUse" x="0" y="0" width="200" height="36">
<path d="M0 0.823997H200V35.176H0V0.823997Z" fill="white"/>
</mask>
<g mask="url(#mask0_2_5)">
<path d="M25.893 29.248H28.59C28.74 30.53 29.173 31.446 29.873 31.995C30.572 32.545 31.671 32.811 33.186 32.811C35.934 32.811 37.316 31.929 37.316 30.147C37.316 29.365 37.033 28.782 36.466 28.382C35.9 27.982 34.868 27.632 33.386 27.35L31.787 27.05C28.207 26.384 26.426 24.702 26.426 21.988C26.426 20.506 26.992 19.324 28.108 18.441C29.223 17.559 30.755 17.126 32.687 17.126C37.233 17.126 39.564 19.0243 39.68 22.821H37.016C36.95 21.571 36.566 20.706 35.884 20.19C35.201 19.673 34.135 19.424 32.687 19.424C31.537 19.424 30.639 19.64 30.023 20.09C29.407 20.54 29.09 21.155 29.09 21.955C29.09 22.7043 29.3567 23.2703 29.89 23.653C30.422 24.036 31.305 24.353 32.553 24.619L34.085 24.919C36.1997 25.335 37.715 25.9343 38.631 26.717C39.547 27.5 40.013 28.582 40.013 29.981C40.013 31.596 39.413 32.861 38.198 33.761C36.983 34.661 35.318 35.109 33.186 35.109C28.59 35.109 26.159 33.161 25.893 29.248ZM49.87 19.857H46.34V31.013C46.34 31.995 46.99 32.478 48.306 32.478H49.871V34.71C49.1377 34.7767 48.505 34.81 47.973 34.81C45.109 34.81 43.677 33.627 43.677 31.246V19.856H40.846V17.526H43.676V12.663H46.341V17.525H49.871L49.87 19.857ZM67.555 32.544V34.71C67.105 34.776 66.622 34.81 66.089 34.81C64.291 34.81 63.325 33.994 63.192 32.345C61.993 34.193 60.128 35.109 57.597 35.109C55.716 35.109 54.234 34.676 53.151 33.794C52.069 32.911 51.536 31.679 51.536 30.081C51.536 26.967 53.651 25.201 57.897 24.752L60.361 24.486C62.16 24.286 63.059 23.503 63.059 22.121C63.059 21.172 62.759 20.473 62.176 20.056C61.594 19.64 60.594 19.424 59.196 19.424C57.714 19.424 56.632 19.674 55.982 20.173C55.332 20.673 54.95 21.555 54.866 22.821H52.202C52.4187 19.0243 54.75 17.126 59.196 17.126C63.509 17.126 65.656 18.791 65.656 22.121V31.712C65.656 32.262 65.973 32.545 66.589 32.545L67.555 32.544ZM61.46 31.546C62.526 30.696 63.059 29.498 63.059 27.916V25.884C62.576 26.267 61.81 26.501 60.794 26.617L58.297 26.917C56.847 27.1 55.832 27.433 55.217 27.916C54.6 28.399 54.3 29.098 54.3 30.014C54.3 30.896 54.583 31.596 55.166 32.095C55.749 32.595 56.598 32.845 57.731 32.845C59.162 32.845 60.395 32.412 61.461 31.545M71.085 32.644C69.62 30.996 68.887 28.832 68.887 26.118C68.887 23.37 69.62 21.172 71.085 19.557C72.5 17.942 74.432 17.126 76.846 17.126C78.894 17.126 80.559 17.676 81.875 18.791C83.19 19.907 83.973 21.421 84.239 23.353H81.475C81.275 22.138 80.743 21.189 79.893 20.523C79.0437 19.8563 78.028 19.523 76.846 19.523C75.264 19.523 74.016 20.09 73.083 21.239C72.15 22.388 71.684 24.003 71.684 26.118C71.684 28.198 72.15 29.831 73.1 30.98C74.049 32.129 75.298 32.711 76.846 32.711C78.028 32.711 79.044 32.361 79.91 31.679C80.776 30.996 81.309 30.031 81.509 28.815H84.239C83.9557 30.747 83.14 32.279 81.792 33.411C80.442 34.543 78.7933 35.109 76.846 35.109C74.482 35.109 72.55 34.292 71.085 32.644ZM98.593 34.71L92.798 25.485L89.734 28.349V34.709H87.07V10.999H89.734V25.219L97.694 17.526H101.224L94.696 23.721L101.69 34.711L98.593 34.71ZM102.456 29.248H106.552C106.669 30.314 107.019 31.063 107.601 31.513C108.184 31.963 109.117 32.179 110.382 32.179C112.647 32.179 113.779 31.496 113.779 30.114C113.779 29.498 113.529 29.014 113.046 28.682C112.564 28.349 111.681 28.066 110.415 27.849L108.451 27.516C104.704 26.9 102.822 25.168 102.822 22.321C102.822 20.706 103.439 19.424 104.687 18.508C105.936 17.592 107.685 17.126 109.949 17.126C114.861 17.126 117.392 19.074 117.542 22.954H113.579C113.529 21.938 113.213 21.205 112.613 20.772C112.014 20.339 111.131 20.123 109.949 20.123C107.951 20.123 106.952 20.789 106.952 22.121C106.952 22.704 107.168 23.153 107.618 23.47C108.068 23.786 108.801 24.036 109.816 24.22L111.981 24.552C114.062 24.9353 115.577 25.535 116.527 26.351C117.476 27.167 117.942 28.315 117.942 29.781C117.942 31.513 117.276 32.845 115.944 33.777C114.612 34.71 112.73 35.176 110.316 35.176C105.304 35.176 102.689 33.211 102.456 29.248ZM121.738 32.644C120.19 31.03 119.407 28.848 119.407 26.118C119.407 23.37 120.19 21.172 121.738 19.557C123.27 17.942 125.318 17.126 127.899 17.126C130.147 17.126 131.979 17.726 133.394 18.907C134.81 20.09 135.642 21.705 135.892 23.72H131.696C131.496 22.72 131.063 21.954 130.397 21.422C129.732 20.8887 128.899 20.622 127.899 20.622C126.584 20.622 125.568 21.089 124.819 22.038C124.07 22.987 123.703 24.336 123.703 26.118C123.703 27.899 124.086 29.248 124.836 30.198C125.585 31.146 126.617 31.612 127.899 31.612C128.915 31.612 129.781 31.329 130.48 30.763C131.179 30.197 131.613 29.381 131.763 28.315H135.959C135.742 30.38 134.893 32.029 133.428 33.261C131.963 34.493 130.114 35.109 127.899 35.109C125.368 35.109 123.32 34.292 121.738 32.644ZM152.094 18.741C153.176 19.823 153.709 21.339 153.709 23.321V34.71H149.513V24.02C149.513 21.838 148.431 20.756 146.283 20.756C145.217 20.756 144.318 21.139 143.568 21.905C142.818 22.671 142.453 23.736 142.453 25.085V34.71H138.257V10.998H142.453V19.823C143.768 18.025 145.5 17.126 147.681 17.126C149.546 17.126 151.028 17.676 152.094 18.741ZM165.099 35.109C162.484 35.109 160.37 34.293 158.771 32.645C157.156 31.03 156.34 28.848 156.34 26.118C156.34 23.388 157.156 21.205 158.771 19.59C160.37 17.942 162.484 17.126 165.099 17.126C167.713 17.126 169.828 17.942 171.426 19.556C173.025 21.172 173.824 23.37 173.824 26.118C173.824 28.832 173.025 30.996 171.426 32.645C169.828 34.293 167.73 35.109 165.099 35.109ZM168.379 30.197C169.162 29.231 169.561 27.866 169.561 26.117C169.561 24.369 169.162 23.004 168.379 22.037C167.596 21.072 166.497 20.589 165.099 20.589C163.7 20.589 162.601 21.072 161.818 22.021C161.036 22.971 160.636 24.336 160.636 26.118C160.636 27.899 161.036 29.265 161.818 30.214C162.601 31.163 163.7 31.646 165.099 31.646C166.497 31.646 167.596 31.163 168.379 30.197ZM184.448 35.109C181.833 35.109 179.719 34.293 178.12 32.645C176.505 31.03 175.689 28.848 175.689 26.118C175.689 23.388 176.505 21.205 178.12 19.59C179.719 17.942 181.833 17.126 184.448 17.126C187.062 17.126 189.177 17.942 190.775 19.556C192.374 21.172 193.173 23.37 193.173 26.118C193.173 28.832 192.374 30.996 190.775 32.645C189.177 34.293 187.079 35.109 184.448 35.109ZM187.728 30.197C188.511 29.231 188.91 27.866 188.91 26.117C188.91 24.369 188.511 23.004 187.728 22.037C186.945 21.072 185.846 20.589 184.448 20.589C183.049 20.589 181.95 21.072 181.167 22.021C180.385 22.971 179.985 24.336 179.985 26.118C179.985 27.899 180.385 29.265 181.167 30.214C181.95 31.163 183.049 31.646 184.448 31.646C185.846 31.646 186.945 31.163 187.728 30.197ZM195.804 34.71V10.998H200V34.71H195.804Z" fill="#120735"/>
<path d="M14.47 0.823997L0 8.717L14.47 16.61L28.924 8.717L14.47 0.823997Z" fill="#6420FF"/>
<path d="M19.499 19.007V26.301C19.499 27.9657 19.066 29.231 18.2 30.097C17.334 30.963 16.085 31.396 14.47 31.396C12.838 31.396 11.606 30.963 10.723 30.097C9.85767 29.231 9.425 27.9657 9.425 26.301V18.991L5.262 16.709V26.251C5.262 29.015 6.078 31.163 7.726 32.695C9.358 34.227 11.606 34.993 14.47 34.993C17.35 34.993 19.615 34.243 21.23 32.728C22.862 31.213 23.662 29.065 23.662 26.251V16.726L19.499 19.007Z" fill="#120735"/>
</g>
</svg>
